PathFileType	4	(X/Y/Z)	c:/Users/goper/Files/vsCode/490R/osim_files/C12/C12_SSWS_01.trc
DataRate	CameraRate	NumFrames	NumMarkers	Units                	OrigDataRate	OrigDataStartFrame	OrigNumFrames
120.00	120.00	10	36	mm	120.0	703	1404
                Frame#	Time	LPSIS			LASIS			LTH1			LTH2			LTH3			LTH4			LLFE			LMFE			LSH1			LSH2			LSH3			LSH4			LLMAL			LMMAL			LCAL			LMTP5			LTOE			LMTP1			RPSIS			RASIS			RTH1			RTH2			RTH3			RTH4			RLFE			RMFE			RSH1			RSH2			RSH3			RSH4			RLMAL			RMMAL			RCAL			RMTP1			RTOE			RMTP5		
		X1	Y1	Z1	X2	Y2	Z2	X3	Y3	Z3	X4	Y4	Z4	X5	Y5	Z5	X6	Y6	Z6	X7	Y7	Z7	X8	Y8	Z8	X9	Y9	Z9	X10	Y10	Z10	X11	Y11	Z11	X12	Y12	Z12	X13	Y13	Z13	X14	Y14	Z14	X15	Y15	Z15	X16	Y16	Z16	X17	Y17	Z17	X18	Y18	Z18	X19	Y19	Z19	X20	Y20	Z20	X21	Y21	Z21	X22	Y22	Z22	X23	Y23	Z23	X24	Y24	Z24	X25	Y25	Z25	X26	Y26	Z26	X27	Y27	Z27	X28	Y28	Z28	X29	Y29	Z29	X30	Y30	Z30	X31	Y31	Z31	X32	Y32	Z32	X33	Y33	Z33	X34	Y34	Z34	X35	Y35	Z35	X36	Y36	Z36

703	5.85000	714.45264	1043.45471	366.16296	538.22308	1004.86993	434.52209	646.32257	724.42780	487.59018	641.98975	681.14777	491.69611	587.10583	728.19073	502.82199	590.48663	684.24243	504.38528	612.07410	503.59024	482.57468	584.08142	482.03839	359.22012	715.45624	481.37460	486.88586	752.66174	452.31073	493.33972	682.37451	430.47070	494.73462	725.00244	408.88132	495.78116	980.12170	271.40536	436.97580	952.41827	254.52716	362.19153	1005.21405	324.17337	391.50201	1023.85718	122.73744	440.93063	963.59784	83.20573	388.37582	983.38843	108.76725	339.78625	719.07172	1046.28088	250.55136	532.02887	1024.86047	179.43221	560.27039	736.75751	128.36980	543.61920	694.82983	137.89491	500.66843	754.91290	132.07950	492.17831	706.19727	142.28838	487.03223	526.15662	187.51479	493.46298	535.10559	321.25552	545.38959	426.20874	170.52748	542.43878	382.65067	165.86067	482.93243	421.68024	178.61104	490.13556	379.84589	171.95476	526.82025	95.23689	225.05942	511.71280	111.57275	306.04965	600.19232	61.42012	266.05618	384.89749	47.98363	310.35309	344.33838	68.24478	276.72861	376.74408	38.35150	201.87178
704	5.85833	705.12555	1044.46814	365.13080	527.57410	1007.15228	433.44748	632.54907	725.71307	487.22070	627.16553	682.55780	491.33548	573.49591	730.75055	502.88199	576.26556	686.92133	504.68118	591.77155	505.97919	483.27698	564.30402	484.98001	359.16220	694.02716	483.70355	486.86945	731.79242	455.19449	493.34494	661.61517	432.84750	494.84079	704.33606	411.52716	495.75940	960.61176	275.78339	435.80142	933.19849	259.31516	360.95480	986.62219	328.09250	389.69135	1001.86853	126.96386	441.65762	940.75653	87.99127	389.38733	961.68823	112.38182	340.33270	709.72131	1047.62769	249.58076	522.38318	1026.48572	178.40726	554.39795	737.73010	127.68543	538.35028	695.69403	137.02867	494.59644	755.55017	129.72743	486.54379	706.18182	141.14946	483.66580	526.26636	186.54106	490.06042	535.13831	320.18906	543.05884	426.69788	169.95876	540.54474	383.06467	165.29726	480.69669	421.72437	177.68355	488.12921	379.93808	171.04268	526.51544	95.43658	224.84651	511.29971	112.27345	306.14273	600.09930	61.87583	265.95969	384.81360	47.97256	310.21811	344.23413	67.99133	276.58057	376.59961	38.10741	201.74036
705	5.86667	695.80945	1045.92688	363.98032	518.19403	1009.66412	432.87015	618.04211	726.94476	486.43503	612.24756	684.02411	491.02460	559.83380	733.49243	502.92981	561.03809	689.31067	504.61667	571.59424	508.59399	483.80881	545.02472	487.92233	359.14236	673.67969	486.88754	486.92383	711.14777	458.18961	493.12418	641.03113	435.48267	494.90985	683.84479	414.37305	495.71527	940.05688	279.58563	434.48560	913.50452	263.54031	359.82013	968.36694	331.03076	388.09116	977.58990	130.25053	442.68906	916.07385	92.46014	389.46674	938.83661	115.68083	340.72690	700.51532	1049.35474	248.64619	512.92810	1028.22437	177.48969	548.64545	738.73535	127.00454	533.05396	696.52417	136.25003	488.51132	755.95764	127.89337	481.18259	706.42407	139.86066	479.52542	526.46301	186.13513	486.22586	535.39655	319.14392	540.68195	427.17038	169.23758	538.48547	383.43158	164.65656	478.22122	421.91895	176.94661	486.14249	379.92569	170.30388	526.22247	95.69272	224.59460	510.90170	112.68153	305.86868	599.93323	62.39843	265.83829	384.66531	47.95152	310.08990	344.07584	67.73811	276.42078	376.47195	37.84228	201.65901
706	5.87500	686.38623	1047.71350	362.99484	508.55298	1012.32379	432.11838	604.67114	728.70557	486.54565	597.36951	685.71326	490.78613	546.02216	736.13470	503.23526	546.24207	691.96442	504.50174	551.42749	511.22574	483.83630	524.47638	491.34964	359.52802	652.93988	489.71988	486.77084	692.15057	462.68613	491.69266	621.15234	438.31113	495.01730	663.64130	417.36203	495.62958	919.64496	282.95465	433.28574	893.35260	267.19586	358.74036	949.98523	332.96768	386.65961	951.75903	132.56117	443.82776	889.55707	96.50266	389.55896	914.35962	117.67757	341.53165	690.91760	1051.05969	247.75462	503.71164	1030.13989	176.69283	542.63336	739.81049	126.39577	527.90668	697.38263	135.66664	482.44101	756.17242	126.51706	475.82758	706.60059	138.88921	477.78436	526.35681	184.67052	482.49399	535.58679	318.26083	538.32629	427.55981	168.40942	536.38428	383.91772	163.77431	476.02466	421.72720	176.15866	484.01553	379.95905	169.62393	525.95770	95.94096	224.39621	510.49023	113.07758	305.57748	599.71002	62.86639	265.74069	384.49539	47.89148	309.98965	343.84598	67.45100	276.29984	376.31659	37.59447	201.55840
707	5.88333	676.99377	1049.89160	362.03799	499.00134	1015.00806	431.33841	590.70093	730.47418	486.27023	582.50159	687.64038	490.55859	532.25287	739.15417	503.15784	531.46411	694.93817	504.33594	531.58771	514.20349	484.14859	504.97104	494.60852	359.39661	632.42090	492.51517	486.47452	671.52985	466.45349	491.74005	599.19019	438.57700	494.66183	643.48065	420.40936	495.30893	898.48224	285.36548	431.98587	872.52148	270.19867	357.78540	931.03223	333.41522	385.23895	924.97931	134.24174	445.14276	862.02533	99.87260	390.00220	889.16797	119.34222	342.20828	681.89502	1053.31848	247.00394	494.49536	1032.13037	175.99738	537.55701	740.95404	125.98679	522.52411	698.38770	134.98877	476.41357	756.23181	125.53830	470.58231	706.76642	138.01125	475.34152	526.48633	183.84085	479.18845	535.86603	317.32019	535.98431	428.06311	167.57693	534.37543	384.38770	163.12895	473.51627	422.09409	175.75436	481.93558	380.16864	169.03455	525.69281	96.28215	224.23653	510.08255	113.58862	305.19809	599.57690	63.59705	265.56342	384.37851	47.85558	309.86539	343.65939	67.21912	276.16318	376.20438	37.38958	201.45615
708	5.89167	667.53021	1052.27917	361.18787	489.43106	1017.93707	430.48007	575.89557	732.08411	485.68567	567.38959	689.67712	490.50781	518.29150	742.14844	502.93246	516.41345	697.89923	504.21176	511.91162	517.31671	484.27451	485.06479	497.90781	359.30423	612.41986	495.52585	486.10648	650.68268	468.04373	491.91754	579.25757	441.37537	494.44623	623.41895	423.36960	494.87192	876.90204	286.88565	430.92358	851.69348	272.21161	356.82532	912.50488	333.83673	384.10004	897.75647	135.15755	446.41470	833.88226	103.03799	390.07318	863.46887	120.58768	342.63605	672.26984	1055.46045	246.25777	485.81244	1034.13110	175.47690	532.25580	742.13373	125.57662	518.35071	699.31451	134.58813	470.45694	756.17285	124.89684	465.74936	707.19562	136.78996	471.64078	526.95306	183.88699	475.34329	536.28156	316.94882	533.79431	428.60660	166.99017	532.36493	384.95044	162.59250	471.53711	422.04749	175.08278	480.10458	380.42731	168.61070	525.38824	96.69324	224.01311	509.78204	114.02901	304.94238	599.18518	64.03967	265.65555	384.27982	47.77253	309.80829	343.44437	66.92423	276.07947	376.07681	37.20613	201.35434
709	5.90000	658.05444	1054.80664	360.39902	480.02280	1020.75842	429.56055	561.55328	734.17267	485.68546	552.20282	691.96967	490.47772	503.86752	745.25610	502.66931	501.32898	701.13800	504.00836	492.51163	520.77893	484.08084	465.01572	501.60962	359.08136	592.58679	498.52295	485.61130	630.75867	470.77344	491.08694	558.63629	445.11655	494.77322	603.29041	426.30237	494.20242	854.87109	287.17316	429.97421	830.04205	273.27835	356.16931	893.46899	333.31491	382.92886	869.79578	135.49930	447.51682	805.69934	105.00889	390.68433	836.04541	120.42520	343.76929	662.99469	1057.87341	245.68761	476.49228	1036.03027	174.73860	527.40771	743.90704	125.58435	513.59637	700.27930	134.25902	464.59918	756.03278	124.53246	460.90454	707.41321	136.07043	469.44699	527.35181	183.29399	473.63733	536.34930	314.94293	531.73743	429.19885	166.68378	530.55524	385.56485	162.27922	469.51758	422.37448	174.74478	478.31210	380.77332	168.32077	525.02441	97.16264	223.86705	509.31567	114.51742	304.76154	598.75012	64.43369	265.79846	384.08276	47.74683	309.72360	343.20062	66.67608	276.00412	375.91013	37.04675	201.25824
710	5.90833	648.60516	1057.44348	359.66132	470.63901	1023.56787	428.58493	546.99164	736.45404	485.73346	536.81470	694.44562	490.54050	489.57455	748.73285	502.34802	486.17682	704.60168	503.79642	473.44687	524.61377	484.18213	446.94968	505.31906	358.96402	573.07550	501.47296	484.90909	610.98035	473.44473	490.19107	538.57098	448.34726	494.12262	582.74182	429.68628	493.60620	832.70837	286.70087	429.00204	808.08179	273.25742	355.52875	872.85443	330.46503	382.07242	841.99768	135.18623	448.48740	777.22711	106.19318	391.43872	808.74603	120.14786	344.45682	653.69708	1060.33521	245.11070	467.59430	1037.78162	173.80730	522.34930	745.04395	125.31094	509.03760	701.29169	133.91364	458.86829	755.84875	124.38493	456.30801	707.87561	135.04601	468.71820	527.70807	182.10268	469.65720	537.02521	315.00317	529.93646	430.02203	166.59213	529.04303	386.35147	162.19492	467.77496	422.94321	174.38300	476.77481	381.28473	168.03372	524.71960	97.67789	223.77402	508.65762	115.19688	304.60959	598.57141	65.27299	265.61578	386.82028	45.66475	306.84082	342.97522	66.46080	275.89166	375.76120	36.90935	201.16675
711	5.91667	639.20990	1060.12073	359.07086	461.23175	1026.42310	427.71539	535.74768	741.51318	489.39758	521.76056	697.32806	490.71860	475.22623	752.23639	502.07172	470.55612	708.72290	504.73474	454.39529	528.26654	483.57062	426.16574	509.79764	357.98624	554.12537	504.45627	484.12128	591.59167	475.93344	489.26862	518.58356	451.44583	493.37427	562.72943	431.84894	492.62643	810.26288	285.21021	428.18933	785.21106	272.05777	354.96951	852.30298	327.36496	380.80005	814.34570	134.07379	449.48700	748.82025	106.62364	392.66867	780.78986	118.86613	345.43567	644.51715	1062.78333	244.68816	458.69687	1039.40662	173.06564	517.33856	746.26617	125.21631	504.66354	702.40088	133.66676	453.29227	755.65796	124.39401	451.71704	708.12018	134.89116	466.51242	528.23645	181.74815	466.19135	537.44385	314.71747	528.47559	430.99429	166.64194	527.73077	387.26108	162.16260	465.95636	423.58432	174.32465	475.36185	381.91174	167.81201	524.52698	98.27049	223.73289	508.15408	115.91251	304.43112	598.57831	66.31912	265.21341	386.48691	45.77305	306.70938	342.72470	66.26606	275.78113	375.61682	36.77510	201.07681
712	5.92500	629.80225	1062.73755	358.59579	452.16913	1028.86719	426.72601	517.76038	742.16693	486.69681	506.13440	699.18829	490.46933	460.20270	755.54431	501.74460	454.75110	712.15845	504.33643	435.61288	532.07831	482.85568	406.90750	514.47638	357.07816	534.53558	506.77771	483.37241	571.54938	477.53488	488.46921	498.37738	454.40732	492.55139	542.43750	434.18484	491.79077	787.43268	282.76358	427.52502	761.71448	269.86923	354.36008	830.50586	323.21231	379.63266	786.77716	132.03917	450.28296	719.99457	106.13415	393.81683	752.39484	116.78010	346.46533	635.29956	1065.13855	244.41406	450.04980	1040.77625	172.20193	511.77399	747.11853	125.36459	500.30295	703.39386	133.53778	447.89905	755.49744	124.49950	446.17572	708.82568	134.04272	464.77847	528.91895	181.22345	463.03366	537.93256	314.60547	527.24146	431.96582	166.73415	526.79218	388.28387	162.26123	464.78629	424.31772	174.02516	474.42447	382.62054	167.54907	524.32776	99.04185	223.69897	507.68387	116.53104	304.29892	598.23883	67.04990	265.11819	386.19073	45.86514	306.65103	342.48798	66.07025	275.73599	375.52271	36.69088	201.01199
